<svg width="101" height="100" viewBox="0 0 101 100" fill="none" xmlns="http://www.w3.org/2000/svg">
<rect x="0.5" width="100" height="100" rx="18.5354" fill="#3274F7"/>
<path d="M63.1305 49.9996C69.3267 49.3278 74.2762 44.4297 75.0325 38.2527C75.0985 37.7123 75.1327 37.1621 75.1327 36.6035C75.1327 36.0449 75.0985 35.4947 75.0325 34.9544C74.2838 28.8396 69.4269 23.9788 63.3188 23.2287C62.779 23.1626 62.2293 23.1284 61.6712 23.1284H25.8682V76.8715H61.6712C62.2293 76.8715 62.779 76.8373 63.3188 76.7712C69.4269 76.0219 74.2838 71.1603 75.0325 65.0456C75.0985 64.5052 75.1327 63.955 75.1327 63.3964C75.1327 62.8378 75.0985 62.2876 75.0325 61.7473C74.2762 55.5702 69.3275 50.6722 63.1305 50.0003V49.9996ZM48.2599 62.2268C47.7072 55.8248 42.6635 50.6889 36.3071 49.9996C42.6635 49.3103 47.7072 44.1744 48.2599 37.7724C48.8119 44.1751 53.8563 49.3111 60.2127 49.9996C53.8563 50.6881 48.8119 55.824 48.2599 62.2268Z" fill="white"/>
</svg>
