<svg width="32" height="32" viewBox="0 0 32 32" fill="none" xmlns="http://www.w3.org/2000/svg">
<path d="M21.0864 11.8035C20.6381 9.95804 19.475 8.36625 17.853 7.37832C16.231 6.3904 14.2831 6.08726 12.4376 6.5356C10.5921 6.98393 9.00031 8.14702 8.01238 9.769C7.02445 11.391 6.72131 13.339 7.16965 15.1844C9.14186 23.3026 6.22615 26.4672 6.22615 26.4672L27.1013 21.3959C27.1013 21.3959 23.0586 19.9216 21.0864 11.8035Z" fill="url(#paint0_linear_479_1605)"/>
<path d="M19.2812 25.3363C19.1671 25.7386 18.9492 26.1038 18.6495 26.3954C18.3498 26.687 17.9787 26.8947 17.5734 26.9978C17.1682 27.1009 16.7429 27.0957 16.3403 26.9828C15.9377 26.8698 15.5718 26.6531 15.2793 26.3542" stroke="url(#paint1_linear_479_1605)" stroke-width="1.5" stroke-linecap="round" stroke-linejoin="round"/>
<path d="M24.7356 3.21146C24.7991 2.92952 25.2009 2.92951 25.2644 3.21145L26.0585 6.73669C26.0815 6.83878 26.1612 6.91852 26.2633 6.94152L29.7885 7.73561C30.0705 7.79912 30.0705 8.20088 29.7885 8.26439L26.2633 9.05849C26.1612 9.08148 26.0815 9.16122 26.0585 9.26331L25.2644 12.7885C25.2009 13.0705 24.7991 13.0705 24.7356 12.7885L23.9415 9.26331C23.9185 9.16122 23.8388 9.08148 23.7367 9.05849L20.2115 8.26439C19.9295 8.20088 19.9295 7.79912 20.2115 7.73561L23.7367 6.94152C23.8388 6.91852 23.9185 6.83878 23.9415 6.73669L24.7356 3.21146Z" fill="#3274F7"/>
<path d="M18.8414 1.12687C18.8795 0.957709 19.1205 0.957709 19.1586 1.12687L19.6351 3.24201C19.6489 3.30327 19.6967 3.35111 19.758 3.36491L21.8731 3.84137C22.0423 3.87947 22.0423 4.12053 21.8731 4.15863L19.758 4.63509C19.6967 4.64889 19.6489 4.69673 19.6351 4.75799L19.1586 6.87313C19.1205 7.04229 18.8795 7.04229 18.8414 6.87313L18.3649 4.75799C18.3511 4.69673 18.3033 4.64889 18.242 4.63509L16.1269 4.15863C15.9577 4.12053 15.9577 3.87947 16.1269 3.84137L18.242 3.36491C18.3033 3.35111 18.3511 3.30327 18.3649 3.24201L18.8414 1.12687Z" fill="#3274F7"/>
<defs>
<linearGradient id="paint0_linear_479_1605" x1="4.11308" y1="17.7693" x2="24.9882" y2="12.6979" gradientUnits="userSpaceOnUse">
<stop stop-color="#626FFB"/>
<stop offset="0.28" stop-color="#2A5EDA"/>
<stop offset="0.805" stop-color="#18B8FE"/>
<stop offset="1" stop-color="#8BDCFF"/>
</linearGradient>
<linearGradient id="paint1_linear_479_1605" x1="15.4259" y1="26.9305" x2="19.4278" y2="25.9126" gradientUnits="userSpaceOnUse">
<stop stop-color="#626FFB"/>
<stop offset="0.28" stop-color="#2A5EDA"/>
<stop offset="0.805" stop-color="#18B8FE"/>
<stop offset="1" stop-color="#8BDCFF"/>
</linearGradient>
</defs>
</svg>
