<svg width="32" height="32" viewBox="0 0 32 32" fill="none" xmlns="http://www.w3.org/2000/svg">
<path fill-rule="evenodd" clip-rule="evenodd" d="M25.4142 24.4142C25.7893 24.0391 26 23.5304 26 23V12C26 11.4696 25.7893 10.9609 25.4142 10.5858C25.0391 10.2107 24.5304 10 24 10H15L13 7H8C7.46957 7 6.96086 7.21071 6.58579 7.58579C6.21071 7.96086 6 8.46957 6 9V23C6 23.5304 6.21071 24.0391 6.58579 24.4142C6.96086 24.7893 7.46957 25 8 25H24C24.5304 25 25.0391 24.7893 25.4142 24.4142ZM16 14.5001C16.2761 14.5001 16.5 14.7239 16.5 15.0001V17.5001H19C19.2761 17.5001 19.5 17.7239 19.5 18.0001C19.5 18.2762 19.2761 18.5001 19 18.5001H16.5V21.0001C16.5 21.2762 16.2761 21.5001 16 21.5001C15.7239 21.5001 15.5 21.2762 15.5 21.0001V18.5001H13C12.7239 18.5001 12.5 18.2762 12.5 18.0001C12.5 17.7239 12.7239 17.5001 13 17.5001H15.5V15.0001C15.5 14.7239 15.7239 14.5001 16 14.5001Z" fill="url(#paint0_linear_648_18523)"/>
<defs>
<linearGradient id="paint0_linear_648_18523" x1="6" y1="16" x2="26" y2="16" gradientUnits="userSpaceOnUse">
<stop stop-color="#626FFB"/>
<stop offset="0.28" stop-color="#2A5EDA"/>
<stop offset="0.805" stop-color="#18B8FE"/>
<stop offset="1" stop-color="#8BDCFF"/>
</linearGradient>
</defs>
</svg>
