<svg width="375" height="272" viewBox="0 0 375 272" fill="none" xmlns="http://www.w3.org/2000/svg">
<rect width="375" height="272" fill="#E5E5EC"/>
<g opacity="0.5">
<path d="M205.726 135.999C214.423 135.057 221.37 128.182 222.431 119.513C222.524 118.754 222.572 117.982 222.572 117.198C222.572 116.414 222.524 115.642 222.431 114.883C221.38 106.301 214.564 99.4792 205.991 98.4264C205.233 98.3336 204.462 98.2856 203.678 98.2856H153.429V173.714H203.678C204.462 173.714 205.233 173.666 205.991 173.573C214.564 172.522 221.38 165.699 222.431 157.116C222.524 156.358 222.572 155.586 222.572 154.802C222.572 154.018 222.524 153.246 222.431 152.487C221.37 143.818 214.424 136.943 205.726 136V135.999ZM184.856 153.16C184.08 144.175 177.001 136.967 168.08 135.999C177.001 135.032 184.08 127.824 184.856 118.838C185.63 127.825 192.71 135.033 201.631 135.999C192.71 136.966 185.63 144.174 184.856 153.16Z" fill="#111111"/>
</g>
<rect width="375" height="272" fill="#636E8D" fill-opacity="0.56"/>
</svg>
