<svg width="24" height="24" viewBox="0 0 24 24" fill="none" xmlns="http://www.w3.org/2000/svg">
<path d="M10.4199 6.30425C10.5113 5.89826 11.0898 5.89826 11.1813 6.30425L12.3248 11.3806C12.3579 11.5276 12.4727 11.6424 12.6198 11.6755L17.6961 12.819C18.1021 12.9105 18.1021 13.489 17.6961 13.5805L12.6198 14.724C12.4727 14.7571 12.3579 14.8719 12.3248 15.0189L11.1813 20.0953C11.0898 20.5013 10.5113 20.5013 10.4199 20.0953L9.27637 15.0189C9.24325 14.8719 9.12844 14.7571 8.98141 14.724L3.90508 13.5805C3.49909 13.489 3.49909 12.9105 3.90508 12.819L8.98141 11.6755C9.12844 11.6424 9.24325 11.5276 9.27637 11.3806L10.4199 6.30425Z" fill="#999999"/>
<path d="M17.5083 4.07903C17.4824 3.96393 17.3184 3.96393 17.2924 4.07903L16.8642 5.98006C16.8548 6.02174 16.8223 6.05429 16.7806 6.06368L14.8796 6.49191C14.7645 6.51784 14.7645 6.68186 14.8796 6.70779L16.7806 7.13602C16.8223 7.14541 16.8548 7.17796 16.8642 7.21965L17.2924 9.12067C17.3184 9.23578 17.4824 9.23578 17.5083 9.12067L17.9366 7.21965C17.9459 7.17796 17.9785 7.14541 18.0202 7.13602L19.9212 6.70779C20.0363 6.68186 20.0363 6.51784 19.9212 6.49191L18.0202 6.06368C17.9785 6.05429 17.9459 6.02174 17.9366 5.98006L17.5083 4.07903Z" fill="#999999"/>
</svg>
