<svg width="258" height="72" viewBox="0 0 258 72" fill="none" xmlns="http://www.w3.org/2000/svg">
<path d="M45.9631 35.4961C52.1092 34.8338 57.0183 30.0031 57.7699 23.9128C57.8352 23.3804 57.8691 22.8376 57.8691 22.287C57.8691 21.7364 57.8352 21.1936 57.7699 20.6612C57.0261 14.6306 52.2084 9.83888 46.151 9.09869C45.6159 9.03376 45.0705 9 44.5172 9H9V62H44.5146C45.0679 62 45.6133 61.9662 46.1484 61.9013C52.2084 61.1611 57.0235 56.3668 57.7673 50.3388C57.8326 49.8064 57.8665 49.2636 57.8665 48.713C57.8665 48.1624 57.8326 47.6196 57.7673 47.0872C57.0183 40.9943 52.1092 36.1662 45.9604 35.5039L45.9631 35.4961ZM31.2097 47.5547C30.6616 41.241 25.6586 36.1766 19.3532 35.4961C25.6586 34.8156 30.6616 29.7512 31.2097 23.4375C31.7577 29.7512 36.7608 34.8156 43.0661 35.4961C36.7608 36.174 31.7577 41.2384 31.2097 47.5547Z" fill="#E5E5EC"/>
<path d="M65.876 9.02051H80.9347V50.1152H106.336V61.9971H65.8786V9.02051H65.876Z" fill="#E5E5EC"/>
<path d="M114.244 9.02051H129.303V61.9971H114.244V9.02051Z" fill="#E5E5EC"/>
<path d="M187.859 9.02051V61.9971H175.462L151.963 33.7687V61.9971H137.21V9.02051H149.607L173.106 37.2489V9.02051H187.859Z" fill="#E5E5EC"/>
<path d="M216.301 42.773L210.674 48.7517V61.9945H195.77V9.02051H210.674V31.0443L231.282 9.02051H247.859L226.109 32.4805L249 61.9971H231.509L216.298 42.7756L216.301 42.773Z" fill="#E5E5EC"/>
</svg>
