<svg width="88" height="96" viewBox="0 0 88 96" fill="none" xmlns="http://www.w3.org/2000/svg">
<path d="M66.5608 47.9993C77.629 46.7993 86.4702 38.05 87.821 27.0161C87.939 26.0509 88 25.068 88 24.0703C88 23.0725 87.939 22.0896 87.821 21.1244C86.4837 10.2018 77.808 1.51907 66.8971 0.179193C65.9329 0.0610886 64.951 0 63.9541 0H0V96H63.9541C64.951 96 65.9329 95.9389 66.8971 95.8208C77.808 94.4823 86.4837 85.7982 87.821 74.8756C87.939 73.9104 88 72.9275 88 71.9297C88 70.932 87.939 69.9491 87.821 68.9839C86.4702 57.95 77.6303 49.2007 66.5608 48.0007V47.9993ZM39.9978 69.8405C39.0105 58.4047 30.0011 49.2306 18.6467 47.9993C30.0011 46.768 39.0105 37.5939 39.9978 26.1581C40.9838 37.5953 49.9945 46.7694 61.3488 47.9993C49.9945 49.2292 40.9838 58.4034 39.9978 69.8405Z" fill="url(#paint0_linear_2484_2390)"/>
<defs>
<linearGradient id="paint0_linear_2484_2390" x1="-1.02446e-07" y1="48" x2="88" y2="48" gradientUnits="userSpaceOnUse">
<stop stop-color="#626FFB"/>
<stop offset="0.28" stop-color="#2A5EDA"/>
<stop offset="0.805" stop-color="#18B8FE"/>
<stop offset="1" stop-color="#8BDCFF"/>
</linearGradient>
</defs>
</svg>
