<svg width="36" height="36" viewBox="0 0 36 36" fill="none" xmlns="http://www.w3.org/2000/svg">
<path d="M15.6296 9.45674C15.7667 8.84775 16.6345 8.84775 16.7717 9.45674L18.487 17.0712C18.5366 17.2918 18.7089 17.464 18.9294 17.5137L26.5439 19.2289C27.1529 19.3661 27.1529 20.2339 26.5439 20.3711L18.9294 22.0863C18.7089 22.136 18.5366 22.3082 18.487 22.5288L16.7717 30.1433C16.6345 30.7522 15.7667 30.7523 15.6296 30.1433L13.9143 22.5288C13.8646 22.3082 13.6924 22.136 13.4719 22.0863L5.85738 20.3711C5.24839 20.2339 5.24839 19.3661 5.85738 19.2289L13.4719 17.5137C13.6924 17.464 13.8646 17.2918 13.9143 17.0712L15.6296 9.45674Z" fill="white"/>
<path d="M26.2085 5.87908C26.1826 5.76398 26.0186 5.76397 25.9926 5.87908L25.2886 9.00434C25.2793 9.04602 25.2467 9.07857 25.205 9.08796L22.0798 9.79196C21.9647 9.81789 21.9647 9.98191 22.0798 10.0078L25.205 10.7118C25.2467 10.7212 25.2793 10.7538 25.2886 10.7955L25.9926 13.9207C26.0186 14.0358 26.1826 14.0358 26.2085 13.9207L26.9125 10.7955C26.9219 10.7538 26.9545 10.7212 26.9962 10.7118L30.1214 10.0078C30.2365 9.98191 30.2365 9.81789 30.1214 9.79196L26.9962 9.08796C26.9545 9.07857 26.9219 9.04602 26.9125 9.00434L26.2085 5.87908Z" fill="white"/>
</svg>
