<svg width="24" height="24" viewBox="0 0 24 24" fill="none" xmlns="http://www.w3.org/2000/svg">
<path d="M6.0728 10.2399C5.81657 9.85425 6.28784 9.40578 6.69306 9.64961L11.7597 12.6984C11.9065 12.7867 12.0935 12.7867 12.2403 12.6984L17.3069 9.64961C17.7122 9.40578 18.1834 9.85425 17.9272 10.2399L14.7235 15.0615C14.6307 15.2012 14.6307 15.3792 14.7235 15.5188L17.9272 20.3405C18.1834 20.7261 17.7122 21.1746 17.3069 20.9307L12.2403 17.882C12.0935 17.7937 11.9065 17.7937 11.7597 17.882L6.69306 20.9307C6.28784 21.1746 5.81657 20.7261 6.0728 20.3405L9.27648 15.5188C9.36926 15.3792 9.36926 15.2012 9.27648 15.0615L6.0728 10.2399Z" fill="url(#paint0_linear_517_15203)"/>
<path d="M10.0345 3.01964C9.91958 2.95051 9.78597 3.07766 9.85861 3.18699L11.0584 4.99264C11.0847 5.03223 11.0847 5.0827 11.0584 5.1223L9.85861 6.92794C9.78597 7.03728 9.91958 7.16443 10.0345 7.09529L11.9319 5.95358C11.9735 5.92854 12.0265 5.92854 12.0681 5.95358L13.9655 7.09529C14.0804 7.16443 14.214 7.03727 14.1414 6.92794L12.9416 5.1223C12.9153 5.0827 12.9153 5.03223 12.9416 4.99264L14.1414 3.18699C14.214 3.07766 14.0804 2.95051 13.9655 3.01964L12.0681 4.16136C12.0265 4.18639 11.9735 4.18639 11.9319 4.16136L10.0345 3.01964Z" fill="url(#paint1_linear_517_15203)"/>
<defs>
<linearGradient id="paint0_linear_517_15203" x1="6" y1="12" x2="18" y2="12" gradientUnits="userSpaceOnUse">
<stop stop-color="#626FFB"/>
<stop offset="0.28" stop-color="#2A5EDA"/>
<stop offset="0.805" stop-color="#18B8FE"/>
<stop offset="1" stop-color="#8BDCFF"/>
</linearGradient>
<linearGradient id="paint1_linear_517_15203" x1="6" y1="12" x2="18" y2="12" gradientUnits="userSpaceOnUse">
<stop stop-color="#626FFB"/>
<stop offset="0.28" stop-color="#2A5EDA"/>
<stop offset="0.805" stop-color="#18B8FE"/>
<stop offset="1" stop-color="#8BDCFF"/>
</linearGradient>
</defs>
</svg>
