<svg width="173" height="39" viewBox="0 0 173 39" fill="none" xmlns="http://www.w3.org/2000/svg">
<g clip-path="url(#clip0_5048_21297)">
<path d="M26.9899 19.1103C31.3946 18.6326 34.9127 15.1489 35.4514 10.7567C35.4981 10.3727 35.5225 9.98127 35.5225 9.5842C35.5225 9.18712 35.4981 8.79567 35.4514 8.4117C34.9183 4.06261 31.4657 0.606931 27.1245 0.0731269C26.7411 0.0263021 26.3502 0.00195312 25.9537 0.00195312H0.5V38.2242H25.9518C26.3484 38.2242 26.7393 38.1998 27.1227 38.153C31.4656 37.6192 34.9165 34.1616 35.4495 29.8144C35.4963 29.4305 35.5206 29.039 35.5206 28.6419C35.5206 28.2449 35.4963 27.8534 35.4495 27.4694C34.9127 23.0754 31.3946 19.5935 26.988 19.1159L26.9899 19.1103ZM16.4167 27.8066C16.024 23.2533 12.4385 19.601 7.91971 19.1103C12.4385 18.6195 16.024 14.9672 16.4167 10.4139C16.8095 14.9672 20.395 18.6195 24.9138 19.1103C20.395 19.5991 16.8095 23.2514 16.4167 27.8066Z" fill="#3274F7"/>
<path d="M41.2607 0.0168457H52.0527V29.6533H70.2569V38.2222H41.2626V0.0168457H41.2607Z" fill="#3274F7"/>
<path d="M75.9243 0.0168457H86.7163V38.2222H75.9243V0.0168457Z" fill="#3274F7"/>
<path d="M128.681 0.0168457V38.2222H119.797L102.956 17.8646V38.2222H92.3833V0.0168457H101.268L118.108 20.3744V0.0168457H128.681Z" fill="#3274F7"/>
<path d="M149.065 24.3583L145.032 28.6699V38.2203H134.351V0.0168457H145.032V15.8998L159.801 0.0168457H171.681L156.094 16.9356L172.498 38.2222H159.963L149.063 24.3602L149.065 24.3583Z" fill="#3274F7"/>
</g>
<defs>
<clipPath id="clip0_5048_21297">
<rect width="172" height="38.2222" fill="white" transform="translate(0.5)"/>
</clipPath>
</defs>
</svg>
