<svg width="32" height="32" viewBox="0 0 32 32" fill="none" xmlns="http://www.w3.org/2000/svg">
<path d="M8.68 25V8.2H17.272C19.48 8.2 21.128 8.608 22.216 9.424C23.304 10.224 23.848 11.28 23.848 12.592C23.848 13.456 23.616 14.216 23.152 14.872C22.704 15.512 22.064 16.024 21.232 16.408C20.416 16.776 19.44 16.96 18.304 16.96L18.784 15.808C19.968 15.808 21 15.992 21.88 16.36C22.76 16.712 23.44 17.232 23.92 17.92C24.416 18.592 24.664 19.416 24.664 20.392C24.664 21.848 24.072 22.984 22.888 23.8C21.72 24.6 20.008 25 17.752 25H8.68ZM13.384 21.568H17.368C18.184 21.568 18.8 21.432 19.216 21.16C19.648 20.872 19.864 20.44 19.864 19.864C19.864 19.288 19.648 18.864 19.216 18.592C18.8 18.304 18.184 18.16 17.368 18.16H13.048V14.872H16.648C17.448 14.872 18.048 14.736 18.448 14.464C18.848 14.192 19.048 13.784 19.048 13.24C19.048 12.696 18.848 12.296 18.448 12.04C18.048 11.768 17.448 11.632 16.648 11.632H13.384V21.568Z" fill="url(#paint0_linear_620_18854)"/>
<defs>
<linearGradient id="paint0_linear_620_18854" x1="7" y1="16" x2="26" y2="16" gradientUnits="userSpaceOnUse">
<stop stop-color="#626FFB"/>
<stop offset="0.28" stop-color="#2A5EDA"/>
<stop offset="0.805" stop-color="#18B8FE"/>
<stop offset="1" stop-color="#8BDCFF"/>
</linearGradient>
</defs>
</svg>
