<svg width="24" height="24" viewBox="0 0 24 24" fill="none" xmlns="http://www.w3.org/2000/svg">
<path d="M19.2908 16.9695C19.0082 17.6224 18.6737 18.2233 18.2861 18.7759C17.7578 19.5291 17.3252 20.0505 16.9919 20.34C16.4751 20.8153 15.9214 21.0587 15.3285 21.0725C14.9029 21.0725 14.3896 20.9514 13.792 20.7057C13.1925 20.4612 12.6416 20.34 12.1379 20.34C11.6096 20.34 11.043 20.4612 10.4369 20.7057C9.82994 20.9514 9.34096 21.0794 8.96711 21.0921C8.39854 21.1164 7.83182 20.866 7.26614 20.34C6.90509 20.0251 6.45349 19.4853 5.91249 18.7205C5.33204 17.9038 4.85483 16.9568 4.48098 15.8771C4.08059 14.7109 3.87988 13.5816 3.87988 12.4883C3.87988 11.2359 4.1505 10.1558 4.69253 9.25063C5.11853 8.52357 5.68525 7.95004 6.39454 7.52901C7.10384 7.10797 7.87023 6.89342 8.69557 6.87969C9.14717 6.87969 9.73939 7.01938 10.4753 7.29392C11.2092 7.56938 11.6804 7.70907 11.887 7.70907C12.0415 7.70907 12.5649 7.54573 13.4523 7.2201C14.2915 6.91811 14.9998 6.79306 15.58 6.84232C17.1522 6.96921 18.3334 7.58899 19.119 8.70559C17.7128 9.55757 17.0173 10.7509 17.0311 12.2817C17.0438 13.4741 17.4764 14.4663 18.3265 15.2542C18.7118 15.6199 19.142 15.9025 19.6207 16.1032C19.5169 16.4043 19.4073 16.6926 19.2908 16.9695ZM15.6849 2.78011C15.6849 3.71469 15.3435 4.58732 14.6629 5.39501C13.8416 6.35519 12.8482 6.91003 11.771 6.82248C11.7572 6.71036 11.7493 6.59235 11.7493 6.46835C11.7493 5.57115 12.1399 4.61096 12.8335 3.82588C13.1797 3.42838 13.6202 3.09786 14.1542 2.83421C14.6872 2.57448 15.1912 2.43085 15.6653 2.40625C15.6792 2.53119 15.6849 2.65614 15.6849 2.78009V2.78011Z" fill="black"/>
</svg>
