<svg width="24" height="24" viewBox="0 0 24 24" fill="none" xmlns="http://www.w3.org/2000/svg">
<circle cx="12" cy="12" r="11.4167" fill="#EBF1FE" stroke="white" stroke-width="1.16667"/>
<path d="M14.5786 11.9998C15.8436 11.8626 16.854 10.8627 17.0084 9.60171C17.0218 9.4914 17.0288 9.37908 17.0288 9.26505C17.0288 9.15101 17.0218 9.03869 17.0084 8.92838C16.8555 7.68008 15.864 6.68777 14.6171 6.53464C14.5069 6.52114 14.3946 6.51416 14.2807 6.51416H6.97168V17.4856H14.2807C14.3946 17.4856 14.5069 17.4786 14.6171 17.4651C15.864 17.3121 16.8555 16.3197 17.0084 15.0714C17.0218 14.9611 17.0288 14.8487 17.0288 14.7347C17.0288 14.6207 17.0218 14.5083 17.0084 14.398C16.854 13.137 15.8437 12.1371 14.5786 12V11.9998ZM11.5429 14.4959C11.43 13.189 10.4004 12.1405 9.10274 11.9998C10.4004 11.8591 11.43 10.8106 11.5429 9.50366C11.6555 10.8108 12.6853 11.8592 13.983 11.9998C12.6853 12.1404 11.6555 13.1888 11.5429 14.4959Z" fill="#3274F7"/>
</svg>
