<svg width="24" height="24" viewBox="0 0 24 24" fill="none" xmlns="http://www.w3.org/2000/svg">
<path d="M10.4199 6.3045C10.5113 5.8985 11.0898 5.8985 11.1813 6.30449L12.3248 11.3808C12.3579 11.5278 12.4727 11.6427 12.6198 11.6758L17.6961 12.8193C18.1021 12.9107 18.1021 13.4893 17.6961 13.5807L12.6198 14.7242C12.4727 14.7573 12.3579 14.8722 12.3248 15.0192L11.1813 20.0955C11.0898 20.5015 10.5113 20.5015 10.4199 20.0955L9.27637 15.0192C9.24325 14.8722 9.12844 14.7573 8.98141 14.7242L3.90508 13.5807C3.49909 13.4893 3.49909 12.9107 3.90508 12.8193L8.98141 11.6758C9.12844 11.6427 9.24325 11.5278 9.27637 11.3808L10.4199 6.3045Z" fill="url(#paint0_linear_277_690)"/>
<path d="M17.5083 4.07928C17.4824 3.96417 17.3184 3.96417 17.2924 4.07928L16.8642 5.9803C16.8548 6.02199 16.8223 6.05454 16.7806 6.06393L14.8796 6.49216C14.7645 6.51809 14.7645 6.68211 14.8796 6.70804L16.7806 7.13627C16.8223 7.14566 16.8548 7.17821 16.8642 7.21989L17.2924 9.12092C17.3184 9.23603 17.4824 9.23603 17.5083 9.12092L17.9366 7.21989C17.9459 7.17821 17.9785 7.14566 18.0202 7.13627L19.9212 6.70804C20.0363 6.68211 20.0363 6.51809 19.9212 6.49216L18.0202 6.06393C17.9785 6.05454 17.9459 6.02199 17.9366 5.9803L17.5083 4.07928Z" fill="url(#paint1_linear_277_690)"/>
<defs>
<linearGradient id="paint0_linear_277_690" x1="3.60059" y1="13.2" x2="18.0006" y2="13.2" gradientUnits="userSpaceOnUse">
<stop stop-color="#626FFB"/>
<stop offset="0.28" stop-color="#2A5EDA"/>
<stop offset="0.805" stop-color="#18B8FE"/>
<stop offset="1" stop-color="#8BDCFF"/>
</linearGradient>
<linearGradient id="paint1_linear_277_690" x1="20.4004" y1="6.6001" x2="14.4004" y2="6.6001" gradientUnits="userSpaceOnUse">
<stop stop-color="#626FFB"/>
<stop offset="0.28" stop-color="#2A5EDA"/>
<stop offset="0.805" stop-color="#18B8FE"/>
<stop offset="1" stop-color="#8BDCFF"/>
</linearGradient>
</defs>
</svg>
