<svg width="66" height="20" viewBox="0 0 66 20" fill="none" xmlns="http://www.w3.org/2000/svg">
<path d="M0.68 20V3.2H9.272C11.48 3.2 13.128 3.608 14.216 4.424C15.304 5.224 15.848 6.28 15.848 7.592C15.848 8.456 15.616 9.216 15.152 9.872C14.704 10.512 14.064 11.024 13.232 11.408C12.416 11.776 11.44 11.96 10.304 11.96L10.784 10.808C11.968 10.808 13 10.992 13.88 11.36C14.76 11.712 15.44 12.232 15.92 12.92C16.416 13.592 16.664 14.416 16.664 15.392C16.664 16.848 16.072 17.984 14.888 18.8C13.72 19.6 12.008 20 9.752 20H0.68ZM5.384 16.568H9.368C10.184 16.568 10.8 16.432 11.216 16.16C11.648 15.872 11.864 15.44 11.864 14.864C11.864 14.288 11.648 13.864 11.216 13.592C10.8 13.304 10.184 13.16 9.368 13.16H5.048V9.872H8.648C9.448 9.872 10.048 9.736 10.448 9.464C10.848 9.192 11.048 8.784 11.048 8.24C11.048 7.696 10.848 7.296 10.448 7.04C10.048 6.768 9.448 6.632 8.648 6.632H5.384V16.568ZM18.9093 20V2.192H23.4693V20H18.9093ZM26.4328 20V6.992H30.9928V20H26.4328ZM28.7128 5.552C27.8808 5.552 27.2088 5.32 26.6968 4.856C26.1848 4.392 25.9288 3.816 25.9288 3.128C25.9288 2.44 26.1848 1.864 26.6968 1.4C27.2088 0.935999 27.8808 0.704 28.7128 0.704C29.5448 0.704 30.2168 0.927999 30.7288 1.376C31.2408 1.808 31.4968 2.368 31.4968 3.056C31.4968 3.776 31.2408 4.376 30.7288 4.856C30.2328 5.32 29.5608 5.552 28.7128 5.552ZM42.4282 6.776C43.4362 6.776 44.3482 6.984 45.1642 7.4C45.9802 7.8 46.6202 8.424 47.0842 9.272C47.5642 10.12 47.8042 11.216 47.8042 12.56V20H43.2442V13.304C43.2442 12.376 43.0522 11.704 42.6682 11.288C42.3002 10.856 41.7802 10.64 41.1082 10.64C40.6282 10.64 40.1882 10.752 39.7882 10.976C39.3882 11.184 39.0762 11.512 38.8522 11.96C38.6282 12.408 38.5162 12.992 38.5162 13.712V20H33.9562V6.992H38.3002V10.688L37.4602 9.608C37.9562 8.664 38.6362 7.96 39.5002 7.496C40.3642 7.016 41.3402 6.776 42.4282 6.776ZM54.4591 17.6L54.5791 12.152L59.8831 6.992H65.2831L59.4031 13.064L57.0751 14.936L54.4591 17.6ZM50.6671 20V2.192H55.2271V20H50.6671ZM60.2191 20L56.2351 15.008L59.0671 11.504L65.7391 20H60.2191Z" fill="#E5E5EC"/>
</svg>
